<svg width="28" height="28" viewBox="0 0 28 28" fill="none" xmlns="http://www.w3.org/2000/svg">
<path fill-rule="evenodd" clip-rule="evenodd" d="M7.77366 0.666748H20.2137C24.747 0.666748 27.3337 3.22675 27.3337 7.77341V20.2267C27.3337 24.7467 24.7603 27.3334 20.227 27.3334H7.77366C3.22699 27.3334 0.666992 24.7467 0.666992 20.2267V7.77341C0.666992 3.22675 3.22699 0.666748 7.77366 0.666748ZM15.0937 15.1067H18.8803C19.4937 15.0934 19.987 14.6001 19.987 13.9867C19.987 13.3734 19.4937 12.8801 18.8803 12.8801H15.0937V9.12008C15.0937 8.50675 14.6003 8.01342 13.987 8.01342C13.3737 8.01342 12.8803 8.50675 12.8803 9.12008V12.8801H9.10699C8.81366 12.8801 8.53366 13.0001 8.32033 13.2001C8.12033 13.4134 8.00033 13.6921 8.00033 13.9867C8.00033 14.6001 8.49366 15.0934 9.10699 15.1067H12.8803V18.8801C12.8803 19.4934 13.3737 19.9867 13.987 19.9867C14.6003 19.9867 15.0937 19.4934 15.0937 18.8801V15.1067Z" fill="currentcolor"/>
</svg>
