<svg xmlns="http://www.w3.org/2000/svg" fill="none" viewBox="40.7 30.7 37.6 37.6">
  <circle cx="59.5" cy="49.4999" r="14.5" fill="#333333"/>
  <g filter="url(#filter0_d)">
    <path d="M59.5 30.7C49.1177 30.7 40.7 39.1177 40.7 49.5C40.7 59.8822 49.1177 68.2999 59.5 68.2999C69.8823 68.2999 78.3 59.8822 78.3 49.5C78.3 39.1177 69.8823 30.7 59.5 30.7ZM67.3333 51.0666H61.0667V57.3333C61.0667 58.1996 60.3648 58.9 59.5 58.9C58.6352 58.9 57.9333 58.1996 57.9333 57.3333V51.0666H51.6667C50.8019 51.0666 50.1 50.3663 50.1 49.5C50.1 48.6336 50.8019 47.9333 51.6667 47.9333H57.9333V41.6666C57.9333 40.8003 58.6352 40.1 59.5 40.1C60.3648 40.1 61.0667 40.8003 61.0667 41.6666V47.9333H67.3333C68.1981 47.9333 68.9 48.6336 68.9 49.5C68.9 50.3663 68.1981 51.0666 67.3333 51.0666Z" fill="white"/>
  </g>
  <defs>
    <filter id="filter0_d" x="0.700012" y="0.699951" width="117.6" height="117.6" filterUnits="userSpaceOnUse" color-interpolation-filters="sRGB">
      <feFlood flood-opacity="0" result="BackgroundImageFix"/>
      <!-- <feColorMatrix in="SourceAlpha" type="matrix" values="0 0 0 0 0 0 0 0 0 0 0 0 0 0 0 0 0 0 127 0" result="hardAlpha"/> -->
      <!-- <feOffset dy="10"/> -->
      <!-- <feGaussianBlur stdDeviation="20"/> -->
      <!-- <feColorMatrix type="matrix" values="0 0 0 0 0 0 0 0 0 0 0 0 0 0 0 0 0 0 0.08 0"/> -->
      <feBlend mode="normal" in2="BackgroundImageFix" result="effect1_dropShadow"/>
      <feBlend mode="normal" in="SourceGraphic" in2="effect1_dropShadow" result="shape"/>
    </filter>
  </defs>
</svg>