<svg width="15" height="15" viewBox="0 0 15 15" fill="none" xmlns="http://www.w3.org/2000/svg">
<path fill-rule="evenodd" clip-rule="evenodd" d="M10.6336 0.938094C10.47 0.889828 10.1458 1.00963 9.96275 1.21355C9.71963 1.45326 9.46449 1.52644 8.9737 1.52644C8.52348 1.52644 8.16178 1.23223 7.88418 0.970744C7.76708 0.860237 7.62601 0.805792 7.48496 0.802673C7.34241 0.805792 7.20127 0.860237 7.08574 0.970744C6.80959 1.23223 6.44636 1.52644 5.99615 1.52644C5.50543 1.52644 5.25179 1.45326 5.00712 1.21355C4.82404 1.00963 4.5014 0.889828 4.33633 0.938094C3.62645 1.14663 3.36076 1.69607 3.36076 2.71859C3.36076 3.89527 4.00424 4.53808 4.87174 4.53808H10.1011C10.9685 4.53808 11.6091 3.89527 11.6091 2.71859C11.6091 1.69607 11.3435 1.14663 10.6336 0.938094ZM9.72759 5.28517H5.24527C2.77496 5.28517 0.762939 7.96222 0.762939 10.5256C0.762939 13.0999 2.50832 14.2502 4.99062 14.2502H9.98224C12.454 14.2502 14.2099 13.0891 14.2099 10.5256C14.2099 7.96222 12.1978 5.28517 9.72759 5.28517ZM7.94549 11.9058L7.94533 12.6928H7.03153V11.9685C6.41473 11.9443 5.81512 11.7996 5.46597 11.6401L5.7395 10.7469C6.12374 10.9208 6.67079 11.0848 7.27011 11.0848C7.80556 11.0848 8.16065 10.9109 8.16065 10.6116C8.16065 10.3219 7.86392 10.1385 7.17709 9.94531C6.19355 9.67001 5.51831 9.2887 5.51831 8.5451C5.51831 7.86435 6.08863 7.33811 7.07219 7.18361V6.4593H7.97441V7.13051C8.57974 7.14512 8.9987 7.26087 9.31868 7.38145L9.04517 8.24566C8.81239 8.15389 8.38168 7.97526 7.71828 7.97526C7.11873 7.97526 6.92684 8.19746 6.92684 8.40967C6.92684 8.656 7.2469 8.82485 8.04437 9.05675C9.1384 9.38033 9.57496 9.80035 9.57496 10.4957C9.57512 11.1768 9.00464 11.761 7.94549 11.9058Z" fill="white"/>
</svg>
