<svg width="24" height="24" viewBox="0 0 24 24" fill="#333333" xmlns="http://www.w3.org/2000/svg">
<path fill-rule="evenodd" clip-rule="evenodd" d="M20.6 4.5H3.4C3.17909 4.5 3 4.67909 3 4.9V7.1C3 7.32091 3.17909 7.5 3.4 7.5H20.6C20.8209 7.5 21 7.32091 21 7.1V4.9C21 4.67909 20.8209 4.5 20.6 4.5ZM20.6 10.5H3.4C3.17909 10.5 3 10.6791 3 10.9V13.1C3 13.3209 3.17909 13.5 3.4 13.5H20.6C20.8209 13.5 21 13.3209 21 13.1V10.9C21 10.6791 20.8209 10.5 20.6 10.5ZM3.4 16.5H20.6C20.8209 16.5 21 16.6791 21 16.9V19.1C21 19.3209 20.8209 19.5 20.6 19.5H3.4C3.17909 19.5 3 19.3209 3 19.1V16.9C3 16.6791 3.17909 16.5 3.4 16.5Z" fill="currentColor"/>
</svg>
