<svg width="24" height="24" viewBox="0 0 24 24" fill="none" xmlns="http://www.w3.org/2000/svg">
<path d="M10.3283 2C5.73857 2 2 5.73857 2 10.3283C2 14.918 5.73857 18.6566 10.3283 18.6566C12.3242 18.6566 14.1571 17.9479 15.5937 16.7714L20.5663 21.7439C20.643 21.8239 20.7349 21.8877 20.8366 21.9316C20.9383 21.9756 21.0478 21.9988 21.1586 22C21.2694 22.0011 21.3793 21.9801 21.4819 21.9382C21.5845 21.8963 21.6777 21.8344 21.756 21.756C21.8344 21.6777 21.8963 21.5845 21.9382 21.4819C21.9801 21.3793 22.0011 21.2694 22 21.1586C21.9988 21.0478 21.9756 20.9383 21.9316 20.8366C21.8877 20.7349 21.8239 20.643 21.7439 20.5663L16.7714 15.5937C17.9479 14.1571 18.6566 12.3242 18.6566 10.3283C18.6566 5.73857 14.918 2 10.3283 2ZM10.3283 3.66566C14.0178 3.66566 16.9909 6.63876 16.9909 10.3283C16.9909 14.0178 14.0178 16.9909 10.3283 16.9909C6.63876 16.9909 3.66566 14.0178 3.66566 10.3283C3.66566 6.63876 6.63876 3.66566 10.3283 3.66566Z" fill="currentcolor"/>
</svg>
