<svg width="19" height="19" viewBox="0 0 19 19" fill="none" xmlns="http://www.w3.org/2000/svg">
<path fill-rule="evenodd" clip-rule="evenodd" d="M7.42122 11.7504C6.38796 12.3745 6.2347 11.4001 6.2347 11.4001L4.93977 8.12703C4.44141 6.57166 5.37095 7.42577 5.37095 7.42577C5.37095 7.42577 6.16851 8.07929 6.77388 8.47745C7.37882 8.87588 8.0684 8.59451 8.0684 8.59451L16.5345 4.36178C14.9723 2.25642 12.3923 0.880005 9.47107 0.880005C4.70401 0.880005 0.839966 4.5432 0.839966 9.06232C0.839966 11.662 2.11934 13.9752 4.11248 15.4746L3.75299 17.7127C3.75299 17.7127 3.57767 18.366 4.18499 18.063C4.59872 17.8565 5.65354 17.1157 6.28146 16.6655C7.30111 17.0497 8.38195 17.246 9.47158 17.2448C14.2382 17.2448 18.1031 13.5816 18.1031 9.06248C18.1031 7.75357 17.7774 6.51741 17.2006 5.42003C14.5031 7.17776 8.22957 11.263 7.42122 11.7504Z" fill="white"/>
</svg>
